# File units = meters
mtllib Roomscale.mtl
g Part 1
v 5.9087 3.43415 1.73326 
v 5.9087 3.23095 1.73326 
v -2.4733 3.23095 1.73326 
v -2.4733 3.43415 1.73326 
v 5.9087 3.43415 4.37486 
v 5.9087 3.23095 4.37486 
v -2.4733 3.43415 4.37486 
v -2.4733 3.23095 4.37486 
vn 0 0 -1 
vn 1 0 0 
vn 0 0 1 
vn -1 0 0 
vn 0 1 0 
vn 0 -1 0 
usemtl 0.917647_0.917647_0.917647_0.000000_0.000000
o mesh0
f 1//1 2//1 3//1 
f 3//1 4//1 1//1 
o mesh1
f 5//2 6//2 2//2 
f 2//2 1//2 5//2 
o mesh2
f 7//3 8//3 6//3 
f 6//3 5//3 7//3 
o mesh3
f 4//4 3//4 8//4 
f 8//4 7//4 4//4 
o mesh4
f 5//5 1//5 4//5 
f 4//5 7//5 5//5 
o mesh5
f 8//6 3//6 2//6 
f 2//6 6//6 8//6 
g Part 1
v 7.0263 1.80855 4.37486 
v 6.8231 1.80855 4.37486 
v 6.8231 -1.23945 4.37486 
v 7.0263 -1.23945 4.37486 
v 7.0263 1.80855 1.73326 
v 6.8231 1.80855 1.73326 
v 7.0263 -1.23945 1.73326 
v 6.8231 -1.23945 1.73326 
vn 0 -1.25062e-33 1 
vn 0 1 0 
vn 0 0 -1 
vn 0 -1 0 
vn 1 0 0 
vn -1 0 0 
o mesh6
f 9//7 10//7 11//7 
f 11//7 12//7 9//7 
o mesh7
f 13//8 14//8 10//8 
f 10//8 9//8 13//8 
o mesh8
f 15//9 16//9 14//9 
f 14//9 13//9 15//9 
o mesh9
f 12//10 11//10 16//10 
f 16//10 15//10 12//10 
o mesh10
f 13//11 9//11 12//11 
f 12//11 15//11 13//11 
o mesh11
f 16//12 11//12 10//12 
f 10//12 14//12 16//12 
g Part 1
v 7.0263 2.01175 1.73326 
v 7.0263 1.80855 1.73326 
v 6.1119 1.80855 1.73326 
v 6.1119 2.01175 1.73326 
v 7.0263 2.01175 4.37486 
v 7.0263 1.80855 4.37486 
v 6.1119 2.01175 4.37486 
v 6.1119 1.80855 4.37486 
vn 0 0 -1 
vn 1 0 0 
vn 0 0 1 
vn -1 0 0 
vn 0 1 0 
vn 0 -1 0 
o mesh12
f 17//13 18//13 19//13 
f 19//13 20//13 17//13 
o mesh13
f 21//14 22//14 18//14 
f 18//14 17//14 21//14 
o mesh14
f 23//15 24//15 22//15 
f 22//15 21//15 23//15 
o mesh15
f 20//16 19//16 24//16 
f 24//16 23//16 20//16 
o mesh16
f 21//17 17//17 20//17 
f 20//17 23//17 21//17 
o mesh17
f 24//18 19//18 18//18 
f 18//18 22//18 24//18 
g Part 1
v 6.1119 -1.23945 4.37486 
v 5.9087 -1.23945 4.37486 
v 5.9087 -2.66185 4.37486 
v 6.1119 -2.66185 4.37486 
v 6.1119 -1.23945 1.73326 
v 5.9087 -1.23945 1.73326 
v 6.1119 -2.66185 1.73326 
v 5.9087 -2.66185 1.73326 
vn 0 4.34502e-33 1 
vn 0 1 0 
vn 0 0 -1 
vn 0 -1 0 
vn 1 0 0 
vn -1 0 0 
o mesh18
f 25//19 26//19 27//19 
f 27//19 28//19 25//19 
o mesh19
f 29//20 30//20 26//20 
f 26//20 25//20 29//20 
o mesh20
f 31//21 32//21 30//21 
f 30//21 29//21 31//21 
o mesh21
f 28//22 27//22 32//22 
f 32//22 31//22 28//22 
o mesh22
f 29//23 25//23 28//23 
f 28//23 31//23 29//23 
o mesh23
f 32//24 27//24 26//24 
f 26//24 30//24 32//24 
g Part 1
v -2.6765 3.23095 1.73326 
v -2.4733 3.23095 1.73326 
v -2.4733 -2.66185 1.73326 
v -2.6765 -2.66185 1.73326 
v -2.6765 3.23095 4.37486 
v -2.4733 3.23095 4.37486 
v -2.6765 -2.66185 4.37486 
v -2.4733 -2.66185 4.37486 
vn 0 0 -1 
vn 0 1 0 
vn 0 -3.01445e-16 1 
vn 0 -1 0 
vn -1 0 0 
vn 1 0 0 
o mesh24
f 33//25 34//25 35//25 
f 35//25 36//25 33//25 
o mesh25
f 37//26 38//26 34//26 
f 34//26 33//26 37//26 
o mesh26
f 39//27 40//27 38//27 
f 38//27 37//27 39//27 
o mesh27
f 36//28 35//28 40//28 
f 40//28 39//28 36//28 
o mesh28
f 37//29 33//29 36//29 
f 36//29 39//29 37//29 
o mesh29
f 40//30 35//30 34//30 
f 34//30 38//30 40//30 
g Part 1
v 6.1119 1.80855 1.73326 
v 5.9087 1.80855 1.73326 
v 5.9087 3.23095 1.73326 
v 6.1119 3.23095 1.73326 
v 6.1119 1.80855 4.37486 
v 5.9087 1.80855 4.37486 
v 6.1119 3.23095 4.37486 
v 5.9087 3.23095 4.37486 
vn 0 -4.34502e-33 -1 
vn 0 -1 0 
vn 0 0 1 
vn 0 1 0 
vn 1 0 0 
vn -1 0 0 
o mesh18
f 41//31 42//31 43//31 
f 43//31 44//31 41//31 
o mesh19
f 45//32 46//32 42//32 
f 42//32 41//32 45//32 
o mesh20
f 47//33 48//33 46//33 
f 46//33 45//33 47//33 
o mesh21
f 44//34 43//34 48//34 
f 48//34 47//34 44//34 
o mesh22
f 45//35 41//35 44//35 
f 44//35 47//35 45//35 
o mesh23
f 48//36 43//36 42//36 
f 42//36 46//36 48//36 
g Part 1
v 7.0263 -1.23945 1.73326 
v 7.0263 -1.44265 1.73326 
v 6.1119 -1.44265 1.73326 
v 6.1119 -1.23945 1.73326 
v 7.0263 -1.23945 4.37486 
v 7.0263 -1.44265 4.37486 
v 6.1119 -1.23945 4.37486 
v 6.1119 -1.44265 4.37486 
vn 0 0 -1 
vn 1 0 0 
vn 0 0 1 
vn -1 0 0 
vn 0 1 0 
vn 0 -1 0 
o mesh12
f 49//37 50//37 51//37 
f 51//37 52//37 49//37 
o mesh13
f 53//38 54//38 50//38 
f 50//38 49//38 53//38 
o mesh14
f 55//39 56//39 54//39 
f 54//39 53//39 55//39 
o mesh15
f 52//40 51//40 56//40 
f 56//40 55//40 52//40 
o mesh16
f 53//41 49//41 52//41 
f 52//41 55//41 53//41 
o mesh17
f 56//42 51//42 50//42 
f 50//42 54//42 56//42 
g Part 1
v 5.9087 -2.66185 1.73326 
v 5.9087 -2.86505 1.73326 
v -2.4733 -2.86505 1.73326 
v -2.4733 -2.66185 1.73326 
v 5.9087 -2.66185 4.37486 
v 5.9087 -2.86505 4.37486 
v -2.4733 -2.66185 4.37486 
v -2.4733 -2.86505 4.37486 
vn 0 0 -1 
vn 1 0 0 
vn 0 0 1 
vn -1 0 0 
vn 0 1 0 
vn 0 -1 0 
o mesh0
f 57//43 58//43 59//43 
f 59//43 60//43 57//43 
o mesh1
f 61//44 62//44 58//44 
f 58//44 57//44 61//44 
o mesh2
f 63//45 64//45 62//45 
f 62//45 61//45 63//45 
o mesh3
f 60//46 59//46 64//46 
f 64//46 63//46 60//46 
o mesh4
f 61//47 57//47 60//47 
f 60//47 63//47 61//47 
o mesh5
f 64//48 59//48 58//48 
f 58//48 62//48 64//48 
