# File units = meters
mtllib NewTable.mtl
g Part 1
v -0.2032 -1.1938 0.03556 
v 0.2032 -1.1938 0.03556 
v 0.2032 1.1938 0.03556 
v -0.2032 1.1938 0.03556 
v 0.205855 1.19646 0.0354209 
v -0.205855 1.19646 0.0354209 
v -0.208481 1.19908 0.0350049 
v -0.211049 1.20165 0.0343168 
v 0.208481 1.19908 0.0350049 
v -0.213531 1.20413 0.0333641 
v 0.211049 1.20165 0.0343168 
v -0.2159 1.2065 0.032157 
v 0.213531 1.20413 0.0333641 
v 0.21813 1.20873 0.030709 
v -0.21813 1.20873 0.030709 
v 0.220196 1.2108 0.0290359 
v -0.220196 1.2108 0.0290359 
v -0.222076 1.21268 0.0271559 
v -0.223749 1.21435 0.0250897 
v 0.222076 1.21268 0.0271559 
v -0.224502 1.2151 0.0239938 
v 0.223749 1.21435 0.0250897 
v 0.224502 1.2151 0.0239938 
v 0.225197 1.2158 0.02286 
v -0.225197 1.2158 0.02286 
v -0.225832 1.21643 0.0216914 
v 0.225832 1.21643 0.0216914 
v 0.226404 1.217 0.0204911 
v -0.226404 1.217 0.0204911 
v -0.226913 1.21751 0.0192625 
v 0.226913 1.21751 0.0192625 
v 0.227357 1.21796 0.018009 
v -0.227357 1.21796 0.018009 
v -0.227735 1.21833 0.016734 
v 0.227735 1.21833 0.016734 
v 0.228045 1.21864 0.015441 
v -0.228045 1.21864 0.015441 
v 0.228287 1.21889 0.0141334 
v -0.228287 1.21889 0.0141334 
v 0.228461 1.21906 0.012815 
v -0.228461 1.21906 0.012815 
v 0.228565 1.21917 0.0114893 
v -0.228565 1.21917 0.0114893 
v -0.2286 1.2192 0.01016 
v 0.2286 1.2192 0.01016 
v 0.2159 1.2065 0.032157 
v 0.208481 -1.19908 0.0350049 
v 0.213531 -1.20413 0.0333641 
v 0.2159 -1.2065 0.032157 
v 0.21813 -1.20873 0.030709 
v 0.220196 -1.2108 0.0290359 
v 0.222076 -1.21268 0.0271559 
v 0.223749 -1.21435 0.0250897 
v 0.224502 -1.2151 0.0239938 
v 0.225197 -1.2158 0.02286 
v 0.225832 -1.21643 0.0216914 
v 0.226404 -1.217 0.0204911 
v 0.226913 -1.21751 0.0192625 
v 0.227357 -1.21796 0.018009 
v 0.227735 -1.21833 0.016734 
v 0.228287 -1.21889 0.0141334 
v 0.228045 -1.21864 0.015441 
v 0.228461 -1.21906 0.012815 
v 0.228565 -1.21917 0.0114893 
v 0.2286 -1.2192 0.01016 
v 0.211049 -1.20165 0.0343168 
v 0.205855 -1.19646 0.0354209 
v -0.228565 -1.21917 0.0114893 
v -0.228461 -1.21906 0.012815 
v -0.2286 -1.2192 0.01016 
v -0.228287 -1.21889 0.0141334 
v -0.228045 -1.21864 0.015441 
v -0.227735 -1.21833 0.016734 
v -0.227357 -1.21796 0.018009 
v -0.226913 -1.21751 0.0192625 
v -0.226404 -1.217 0.0204911 
v -0.225832 -1.21643 0.0216914 
v -0.225197 -1.2158 0.02286 
v -0.224502 -1.2151 0.0239938 
v -0.223749 -1.21435 0.0250897 
v -0.222076 -1.21268 0.0271559 
v -0.220196 -1.2108 0.0290359 
v -0.21813 -1.20873 0.030709 
v -0.2159 -1.2065 0.032157 
v -0.213531 -1.20413 0.0333641 
v -0.211049 -1.20165 0.0343168 
v -0.208481 -1.19908 0.0350049 
v -0.205855 -1.19646 0.0354209 
v 0.2286 1.2192 -0.70104 
v 0.2286 1.18364 0 
v 0.2286 -1.18364 0 
v 0.2286 -1.2192 -0.70104 
v 0.2286 -1.18364 -0.70104 
v 0.2286 1.18364 -0.70104 
v 0.19304 -1.18364 -0.70104 
v 0.19304 -1.18364 0 
v 0.19304 -1.2192 -0.70104 
v 0.19304 -1.2192 0 
v 0.19304 1.18364 0 
v 0.19304 1.18364 -0.70104 
v 0.19304 1.2192 0 
v 0.19304 1.2192 -0.70104 
v -0.2286 1.2192 -0.70104 
v -0.19304 1.2192 0 
v -0.19304 1.2192 -0.70104 
v -0.19304 1.18364 0 
v -0.19304 1.18364 -0.70104 
v -0.2286 1.18364 0 
v -0.2286 1.18364 -0.70104 
v -0.19304 -1.2192 0 
v -0.19304 -1.18364 0 
v -0.2286 -1.18364 0 
v -0.2286 -1.2192 -0.70104 
v -0.2286 -1.18364 -0.70104 
v -0.19304 -1.2192 -0.70104 
v -0.19304 -1.18364 -0.70104 
vn 0 0 1 
vn 0 0.104528 0.994522 
vn 0 0.207912 0.978148 
vn 0 0.309017 0.951057 
vn 0 0.406737 0.913545 
vn 0 0.5 0.866025 
vn 0 0.587785 0.809017 
vn 0 0.669131 0.743145 
vn 0 0.743145 0.669131 
vn 0 0.809017 0.587785 
vn 0 0.838671 0.544639 
vn 0 0.866025 0.5 
vn 0 0.891007 0.45399 
vn 0 0.913545 0.406737 
vn 0 0.93358 0.358368 
vn 0 0.951057 0.309017 
vn 0 0.965926 0.258819 
vn 0 0.978148 0.207912 
vn 0 0.987688 0.156434 
vn 0 0.994522 0.104528 
vn 0 0.99863 0.052336 
vn 0 1 -6.12323e-17 
vn 0 0.5 0.866025 
vn 0 0 1 
vn 0.104528 0 0.994522 
vn 0.207912 0 0.978148 
vn 0.309017 0 0.951057 
vn 0.406737 0 0.913545 
vn 0.5 0 0.866025 
vn 0.587785 0 0.809017 
vn 0.669131 0 0.743145 
vn 0.743145 0 0.669131 
vn 0.809017 0 0.587785 
vn 0.838671 0 0.544639 
vn 0.866025 0 0.5 
vn 0.891007 0 0.45399 
vn 0.913545 0 0.406737 
vn 0.93358 0 0.358368 
vn 0.951057 0 0.309017 
vn 0.965926 0 0.258819 
vn 0.978148 0 0.207912 
vn 0.987688 0 0.156434 
vn 0.994522 0 0.104528 
vn 0.99863 0 0.052336 
vn 1 1.82123e-16 0 
vn 0.309017 0 0.951057 
vn 0.104528 0 0.994522 
vn -0.99863 0 0.052336 
vn -0.994522 0 0.104528 
vn -1 0 0 
vn -0.987688 0 0.156434 
vn -0.978148 0 0.207912 
vn -0.965926 0 0.258819 
vn -0.951057 0 0.309017 
vn -0.93358 0 0.358368 
vn -0.913545 0 0.406737 
vn -0.891007 0 0.45399 
vn -0.866025 0 0.5 
vn -0.838671 0 0.544639 
vn -0.809017 0 0.587785 
vn -0.743145 0 0.669131 
vn -0.669131 0 0.743145 
vn -0.587785 0 0.809017 
vn -0.5 0 0.866025 
vn -0.406737 0 0.913545 
vn -0.309017 0 0.951057 
vn -0.207912 0 0.978148 
vn -0.104528 0 0.994522 
vn -8.72097e-15 -1.58829e-30 1 
vn -0.5 0 0.866025 
vn -0.743145 0 0.669131 
vn -1 -1.82123e-16 0 
vn 0 -0.104528 0.994522 
vn 0 0 1 
vn 0 -0.207912 0.978148 
vn 0 -0.309017 0.951057 
vn 0 -0.406737 0.913545 
vn 0 -0.5 0.866025 
vn 0 -0.587785 0.809017 
vn 0 -0.669131 0.743145 
vn 0 -0.743145 0.669131 
vn 0 -0.809017 0.587785 
vn 0 -0.838671 0.544639 
vn 0 -0.866025 0.5 
vn 0 -0.891007 0.45399 
vn 0 -0.913545 0.406737 
vn 0 -0.93358 0.358368 
vn 0 -0.951057 0.309017 
vn 0 -0.965926 0.258819 
vn 0 -0.978148 0.207912 
vn 0 -0.951057 0.309017 
vn 0 -0.987688 0.156434 
vn 0 -0.978148 0.207912 
vn 0 -0.994522 0.104528 
vn 0 -0.99863 0.052336 
vn 0 -1 -1.83697e-16 
vn 0 -0.5 0.866025 
vn 0 -0.309017 0.951057 
vn 0 0 1 
vn 1 1.82123e-16 0 
vn 0 1 0 
vn -1 0 0 
vn 0 0 -1 
vn 0 -1 0 
vn -1 0 0 
vn 0 0 -1 
vn 0 1 0 
vn 1 0 0 
vn 0 -1 0 
vn 0 0 -1 
vn -1 -1.82123e-16 0 
vn 0 -1 0 
vn 0 1 0 
vn 1 0 0 
vn 0 0 -1 
usemtl 0.623529_0.666667_0.701961_0.000000_0.000000
o mesh0
f 1//1 2//1 3//1 
f 3//1 4//1 1//1 
usemtl 0.000000_0.000000_0.000000_0.000000_0.000000
o mesh1
f 5//2 6//2 4//1 
f 7//3 6//2 5//2 
f 8//4 7//3 9//3 
f 10//5 8//4 11//4 
f 12//6 10//5 13//5 
f 14//7 15//7 12//6 
f 16//8 17//8 15//7 
f 18//9 17//8 16//8 
f 19//10 18//9 20//9 
f 21//11 19//10 22//10 
f 22//10 23//11 21//11 
f 24//12 25//12 21//11 
f 26//13 25//12 24//12 
f 24//12 27//13 26//13 
f 28//14 29//14 26//13 
f 30//15 29//14 28//14 
f 28//14 31//15 30//15 
f 32//16 33//16 30//15 
f 34//17 33//16 32//16 
f 32//16 35//17 34//17 
f 36//18 37//18 34//17 
f 38//19 39//19 37//18 
f 37//18 36//18 38//19 
f 40//20 41//20 39//19 
f 42//21 43//21 41//20 
f 42//21 44//22 43//21 
f 41//20 40//20 42//21 
f 42//21 45//22 44//22 
f 38//19 40//20 39//19 
f 35//17 36//18 34//17 
f 31//15 32//16 30//15 
f 27//13 28//14 26//13 
f 23//11 24//12 21//11 
f 20//9 22//10 19//10 
f 16//8 20//9 18//9 
f 15//7 14//7 16//8 
f 12//6 46//23 14//7 
f 13//5 46//23 12//6 
f 11//4 13//5 10//5 
f 9//3 11//4 8//4 
f 5//2 9//3 7//3 
f 4//1 3//24 5//2 
o mesh2
f 5//25 3//24 2//24 
f 47//26 9//26 5//25 
f 11//27 9//26 47//26 
f 48//28 13//28 11//27 
f 49//29 46//29 13//28 
f 50//30 14//30 46//29 
f 51//31 16//31 14//30 
f 52//32 20//32 16//31 
f 22//33 20//32 52//32 
f 23//34 22//33 53//33 
f 53//33 54//34 23//34 
f 55//35 24//35 23//34 
f 56//36 27//36 24//35 
f 24//35 55//35 56//36 
f 57//37 28//37 27//36 
f 31//38 28//37 57//37 
f 57//37 58//38 31//38 
f 59//39 32//39 31//38 
f 60//40 35//40 32//39 
f 60//40 36//41 35//40 
f 32//39 59//39 60//40 
f 61//42 38//42 36//41 
f 36//41 62//41 61//42 
f 63//43 40//43 38//42 
f 42//44 40//43 63//43 
f 63//43 64//44 42//44 
f 65//45 45//45 42//44 
f 64//44 65//45 42//44 
f 61//42 63//43 38//42 
f 60//40 62//41 36//41 
f 58//38 59//39 31//38 
f 56//36 57//37 27//36 
f 54//34 55//35 23//34 
f 52//32 53//33 22//33 
f 16//31 51//31 52//32 
f 14//30 50//30 51//31 
f 46//29 49//29 50//30 
f 13//28 48//28 49//29 
f 11//27 66//46 48//28 
f 47//26 66//46 11//27 
f 5//25 67//47 47//26 
f 2//24 67//47 5//25 
o mesh3
f 43//48 68//48 69//49 
f 43//48 70//50 68//48 
f 69//49 41//49 43//48 
f 39//51 71//51 72//52 
f 39//51 69//49 71//51 
f 72//52 37//52 39//51 
f 73//53 74//54 33//54 
f 34//53 72//52 73//53 
f 33//54 34//53 73//53 
f 30//55 75//55 76//56 
f 30//55 74//54 75//55 
f 76//56 29//56 30//55 
f 77//57 78//58 25//58 
f 25//58 26//57 77//57 
f 29//56 76//56 77//57 
f 21//59 79//59 80//60 
f 21//59 78//58 79//59 
f 80//60 19//60 21//59 
f 19//60 80//60 81//61 
f 81//61 82//62 17//62 
f 17//62 82//62 83//63 
f 15//63 83//63 84//64 
f 84//64 85//65 10//65 
f 10//65 85//65 86//66 
f 8//66 86//66 87//67 
f 7//67 87//67 88//68 
f 88//68 1//69 4//69 
f 4//69 6//68 88//68 
f 88//68 6//68 7//67 
f 87//67 7//67 8//66 
f 86//66 8//66 10//65 
f 10//65 12//70 84//64 
f 84//64 12//70 15//63 
f 83//63 15//63 17//62 
f 17//62 18//71 81//61 
f 81//61 18//71 19//60 
f 21//59 25//58 78//58 
f 26//57 29//56 77//57 
f 30//55 33//54 74//54 
f 34//53 37//52 72//52 
f 39//51 41//49 69//49 
f 43//48 44//72 70//50 
o mesh4
f 88//73 67//73 2//74 
f 87//75 47//75 67//73 
f 66//76 47//75 87//75 
f 85//77 48//77 66//76 
f 49//78 48//77 85//77 
f 83//79 50//79 49//78 
f 82//80 51//80 50//79 
f 81//81 52//81 51//80 
f 80//82 53//82 52//81 
f 54//83 53//82 80//82 
f 80//82 79//83 54//83 
f 78//84 55//84 54//83 
f 56//85 55//84 78//84 
f 78//84 77//85 56//85 
f 76//86 57//86 56//85 
f 75//87 58//87 57//86 
f 75//87 59//88 58//87 
f 57//86 76//86 75//87 
f 73//89 60//89 59//88 
f 73//89 62//90 60//89 
f 59//88 74//91 73//89 
f 61//92 62//90 72//93 
f 72//93 71//92 61//92 
f 69//94 63//94 61//92 
f 68//95 64//95 63//94 
f 63//94 69//94 68//95 
f 70//96 65//96 64//95 
f 68//95 70//96 64//95 
f 71//92 69//94 61//92 
f 73//89 72//93 62//90 
f 75//87 74//91 59//88 
f 77//85 76//86 56//85 
f 79//83 78//84 54//83 
f 52//81 81//81 80//82 
f 51//80 82//80 81//81 
f 50//79 83//79 82//80 
f 49//78 84//97 83//79 
f 85//77 84//97 49//78 
f 66//76 86//98 85//77 
f 87//75 86//98 66//76 
f 67//73 88//73 87//75 
f 2//74 1//99 88//73 
o mesh5
f 89//100 45//100 90//100 
f 45//100 65//100 91//100 
f 91//100 90//100 45//100 
f 92//100 93//100 91//100 
f 91//100 65//100 92//100 
f 90//100 94//100 89//100 
o mesh6
f 95//101 96//101 91//101 
f 91//101 93//101 95//101 
o mesh7
f 97//102 98//102 96//102 
f 96//102 95//102 97//102 
o mesh8
f 97//103 95//103 93//103 
f 93//103 92//103 97//103 
o mesh9
f 94//104 90//104 99//104 
f 99//104 100//104 94//104 
o mesh10
f 100//105 99//105 101//105 
f 101//105 102//105 100//105 
o mesh11
f 102//106 89//106 94//106 
f 94//106 100//106 102//106 
o mesh12
f 103//107 44//107 104//107 
f 44//107 45//107 101//107 
f 101//107 104//107 44//107 
f 89//107 102//107 101//107 
f 101//107 45//107 89//107 
f 104//107 105//107 103//107 
o mesh13
f 105//108 104//108 106//108 
f 106//108 107//108 105//108 
o mesh14
f 107//109 106//109 108//109 
f 108//109 109//109 107//109 
o mesh15
f 105//110 107//110 109//110 
f 109//110 103//110 105//110 
o mesh16
f 110//110 111//110 96//110 
f 111//110 99//110 96//110 
f 96//110 98//110 110//110 
f 91//110 96//110 99//110 
f 101//110 99//110 106//110 
f 112//110 108//110 106//110 
f 99//110 90//110 91//110 
f 106//110 99//110 112//110 
f 106//110 104//110 101//110 
f 111//110 112//110 99//110 
o mesh17
f 113//111 70//111 112//111 
f 70//111 44//111 108//111 
f 108//111 112//111 70//111 
f 103//111 109//111 108//111 
f 108//111 44//111 103//111 
f 112//111 114//111 113//111 
o mesh18
f 92//112 65//112 98//112 
f 65//112 70//112 110//112 
f 110//112 98//112 65//112 
f 113//112 115//112 110//112 
f 110//112 70//112 113//112 
f 98//112 97//112 92//112 
o mesh19
f 114//113 112//113 111//113 
f 111//113 116//113 114//113 
o mesh20
f 116//114 111//114 110//114 
f 110//114 115//114 116//114 
o mesh21
f 115//115 113//115 114//115 
f 114//115 116//115 115//115 
