# File units = meters
mtllib Lamp.mtl
g Part 1
v 0.125 0.125 0 
v 0.125 0.085 0 
v 0.085 0.085 0 
v 0.085 0.125 0 
v 0.085 0.125 0.38 
v 0.085 0.085 0.38 
v 0.125 0.085 0.38 
v -0.085 -0.125 0.38 
v -0.085 -0.085 0.38 
v 0.085 -0.085 0.38 
v -0.085 0.085 0.38 
v 0.125 -0.085 0.38 
v -0.125 0.085 0.38 
v -0.125 -0.085 0.38 
v -0.085 0.125 0.38 
v 0.085 -0.125 0.38 
v -0.085 0.085 0 
v -0.085 0.125 0 
v -0.125 0.085 0 
v -0.125 0.125 0 
v 0.085 -0.085 0 
v 0.085 -0.125 0 
v 0.125 -0.125 0 
v 0.125 -0.085 0 
v -0.085 -0.125 0 
v -0.085 -0.085 0 
v -0.125 -0.125 0 
v -0.125 -0.085 0 
v 0.125 0.125 1.6 
v 0.125 -0.125 1.6 
v 0.125 -0.085 1.56 
v 0.125 -0.085 1.18 
v 0.125 -0.085 1.22 
v 0.125 0.085 1.22 
v 0.125 0.085 1.18 
v 0.125 0.085 1.56 
v 0.125 -0.085 0.78 
v 0.125 -0.085 0.82 
v 0.125 0.085 0.82 
v 0.125 0.085 0.78 
v 0.125 -0.085 0.42 
v 0.125 0.085 0.42 
v -0.125 -0.125 1.6 
v -0.125 0.125 1.6 
v 0.085 -0.085 0.42 
v 0.085 -0.085 0.78 
v 0.085 -0.125 0.78 
v 0.085 -0.125 0.42 
v 0.085 0.085 0.78 
v 0.085 0.085 0.42 
v 0.085 0.125 0.78 
v 0.085 0.125 0.42 
v 0.085 0.085 1.18 
v 0.085 0.085 0.82 
v 0.085 0.125 1.18 
v 0.085 0.125 0.82 
v 0.085 -0.085 0.82 
v 0.085 -0.085 1.18 
v 0.085 -0.125 1.18 
v 0.085 -0.125 0.82 
v 0.085 -0.085 1.22 
v 0.085 -0.085 1.56 
v 0.085 -0.125 1.56 
v 0.085 -0.125 1.22 
v 0.085 0.085 1.56 
v 0.085 0.085 1.22 
v 0.085 0.125 1.56 
v 0.085 0.125 1.22 
v -0.085 0.125 0.82 
v -0.085 0.125 0.78 
v -0.085 0.125 0.42 
v -0.085 0.125 1.22 
v -0.085 0.125 1.18 
v -0.085 0.125 1.56 
v -0.085 0.085 1.56 
v -0.085 0.085 1.22 
v -0.125 0.085 1.56 
v -0.125 0.085 1.22 
v -0.085 0.085 1.18 
v -0.085 0.085 0.82 
v -0.125 0.085 1.18 
v -0.125 0.085 0.82 
v -0.085 0.085 0.78 
v -0.085 0.085 0.42 
v -0.125 0.085 0.78 
v -0.125 0.085 0.42 
v -0.085 -0.085 1.22 
v -0.125 -0.085 1.22 
v -0.085 -0.125 1.22 
v -0.085 -0.125 1.56 
v -0.085 -0.085 1.56 
v -0.125 -0.085 1.56 
v -0.125 -0.085 1.18 
v -0.125 -0.085 0.82 
v -0.125 -0.085 0.78 
v -0.125 -0.085 0.42 
v -0.085 -0.085 0.82 
v -0.085 -0.125 0.82 
v -0.085 -0.125 1.18 
v -0.085 -0.085 1.18 
v -0.085 -0.125 0.42 
v -0.085 -0.125 0.78 
v -0.085 -0.085 0.42 
v -0.085 -0.085 0.78 
vn 0 0 -1 
vn -1 0 0 
vn -1.11022e-16 -1 0 
vn 0 0 -1 
vn 1 0 0 
vn -1.11022e-16 -1 0 
vn -1 0 0 
vn 0 0 -1 
vn 1.11022e-16 1 0 
vn 1 0 0 
vn 0 0 -1 
vn 1.11022e-16 1 0 
vn 1 -1.11022e-16 0 
vn 0 0 1 
vn 1.11022e-16 1 0 
vn -1 0 0 
vn -1.11022e-16 -1 0 
vn 1.11022e-16 1 0 
vn -1 0 0 
vn -1.11022e-16 -1 0 
vn 0 1 0 
vn 1 0 0 
vn -1.11022e-16 -1 0 
vn 0 0 1 
vn 0 0 -1 
vn 1 0 0 
vn 1.11022e-16 1 0 
vn -1 5.55112e-17 0 
vn 0 0 1 
vn 0 0 -1 
vn 1 0 0 
vn 1.11022e-16 1 0 
vn 0 -1 0 
vn 0 0 1 
vn 0 0 -1 
vn 1 0 0 
vn 1.11022e-16 1 0 
usemtl 0.262745_0.282353_0.301961_0.000000_0.000000
o mesh0
f 1//1 2//1 3//1 
f 3//1 4//1 1//1 
o mesh1
f 5//2 4//2 3//2 
f 3//2 6//2 5//2 
o mesh2
f 6//3 3//3 2//3 
f 2//3 7//3 6//3 
o mesh3
f 8//4 9//4 10//4 
f 5//4 6//4 11//4 
f 9//4 6//4 10//4 
f 12//4 10//4 6//4 
f 6//4 9//4 11//4 
f 13//4 11//4 9//4 
f 6//4 7//4 12//4 
f 9//4 14//4 13//4 
f 11//4 15//4 5//4 
f 10//4 16//4 8//4 
o mesh4
f 15//5 11//5 17//5 
f 17//5 18//5 15//5 
o mesh5
f 18//4 17//4 19//4 
f 19//4 20//4 18//4 
o mesh6
f 11//6 13//6 19//6 
f 19//6 17//6 11//6 
o mesh7
f 16//7 10//7 21//7 
f 21//7 22//7 16//7 
o mesh8
f 23//8 22//8 21//8 
f 21//8 24//8 23//8 
o mesh9
f 24//9 21//9 10//9 
f 10//9 12//9 24//9 
o mesh10
f 8//10 25//10 26//10 
f 26//10 9//10 8//10 
o mesh11
f 25//11 27//11 28//11 
f 28//11 26//11 25//11 
o mesh12
f 28//12 14//12 9//12 
f 9//12 26//12 28//12 
o mesh13
f 29//13 30//13 31//13 
f 30//13 32//13 33//13 
f 33//13 31//13 30//13 
f 34//13 33//13 32//13 
f 32//13 35//13 34//13 
f 29//13 36//13 34//13 
f 34//13 35//13 29//13 
f 30//13 37//13 38//13 
f 38//13 32//13 30//13 
f 39//13 38//13 37//13 
f 37//13 40//13 39//13 
f 29//13 35//13 39//13 
f 39//13 40//13 29//13 
f 30//13 12//13 41//13 
f 41//13 37//13 30//13 
f 42//13 41//13 12//13 
f 12//13 7//13 42//13 
f 29//13 40//13 42//13 
f 1//13 29//13 7//13 
f 42//13 7//13 29//13 
f 31//13 36//13 29//13 
f 23//13 24//13 12//13 
f 12//13 30//13 23//13 
f 7//13 2//13 1//13 
o mesh14
f 43//14 30//14 29//14 
f 29//14 44//14 43//14 
o mesh15
f 41//15 45//15 46//15 
f 46//15 37//15 41//15 
o mesh16
f 47//16 46//16 45//16 
f 45//16 48//16 47//16 
o mesh17
f 49//17 50//17 42//17 
f 42//17 40//17 49//17 
o mesh18
f 51//16 52//16 50//16 
f 50//16 49//16 51//16 
o mesh19
f 53//17 54//17 39//17 
f 39//17 35//17 53//17 
o mesh20
f 55//16 56//16 54//16 
f 54//16 53//16 55//16 
o mesh21
f 38//18 57//18 58//18 
f 58//18 32//18 38//18 
o mesh22
f 59//19 58//19 57//19 
f 57//19 60//19 59//19 
o mesh23
f 33//18 61//18 62//18 
f 62//18 31//18 33//18 
o mesh24
f 63//19 62//19 61//19 
f 61//19 64//19 63//19 
o mesh25
f 65//20 66//20 34//20 
f 34//20 36//20 65//20 
o mesh26
f 67//19 68//19 66//19 
f 66//19 65//19 67//19 
o mesh27
f 29//21 51//21 56//21 
f 56//21 55//21 29//21 
f 55//21 68//21 29//21 
f 44//21 69//21 70//21 
f 70//21 71//21 44//21 
f 71//21 15//21 44//21 
f 55//21 72//21 68//21 
f 69//21 56//21 51//21 
f 44//21 73//21 69//21 
f 51//21 70//21 69//21 
f 44//21 74//21 72//21 
f 71//21 5//21 15//21 
f 72//21 73//21 44//21 
f 72//21 55//21 73//21 
f 44//21 29//21 67//21 
f 1//21 4//21 5//21 
f 20//21 44//21 15//21 
f 67//21 74//21 44//21 
f 1//21 52//21 51//21 
f 5//21 52//21 1//21 
f 68//21 67//21 29//21 
f 5//21 71//21 52//21 
f 51//21 29//21 1//21 
f 15//21 18//21 20//21 
o mesh28
f 74//22 75//22 76//22 
f 76//22 72//22 74//22 
o mesh29
f 77//23 78//23 76//23 
f 76//23 75//23 77//23 
o mesh30
f 73//22 79//22 80//22 
f 80//22 69//22 73//22 
o mesh31
f 81//23 82//23 80//23 
f 80//23 79//23 81//23 
o mesh32
f 70//22 83//22 84//22 
f 84//22 71//22 70//22 
o mesh33
f 85//23 86//23 84//23 
f 84//23 83//23 85//23 
o mesh34
f 72//24 76//24 66//24 
f 64//24 61//24 87//24 
f 76//24 61//24 66//24 
f 34//24 66//24 61//24 
f 61//24 76//24 87//24 
f 88//24 87//24 76//24 
f 61//24 33//24 34//24 
f 76//24 78//24 88//24 
f 87//24 89//24 64//24 
f 66//24 68//24 72//24 
o mesh35
f 90//25 91//25 62//25 
f 67//25 65//25 75//25 
f 91//25 65//25 62//25 
f 31//25 62//25 65//25 
f 65//25 91//25 75//25 
f 77//25 75//25 91//25 
f 65//25 36//25 31//25 
f 91//25 92//25 77//25 
f 75//25 74//25 67//25 
f 62//25 63//25 90//25 
o mesh36
f 90//26 89//26 87//26 
f 87//26 91//26 90//26 
o mesh37
f 87//27 88//27 92//27 
f 92//27 91//27 87//27 
o mesh38
f 27//28 88//28 93//28 
f 43//28 92//28 88//28 
f 43//28 44//28 77//28 
f 93//28 94//28 27//28 
f 94//28 95//28 27//28 
f 77//28 92//28 43//28 
f 44//28 81//28 78//28 
f 78//28 77//28 44//28 
f 88//28 78//28 81//28 
f 94//28 85//28 95//28 
f 81//28 93//28 88//28 
f 88//28 27//28 43//28 
f 44//28 20//28 82//28 
f 20//28 86//28 85//28 
f 82//28 81//28 44//28 
f 85//28 82//28 20//28 
f 96//28 86//28 13//28 
f 20//28 19//28 13//28 
f 85//28 94//28 82//28 
f 13//28 86//28 20//28 
f 27//28 96//28 14//28 
f 13//28 14//28 96//28 
f 95//28 96//28 27//28 
f 14//28 28//28 27//28 
o mesh39
f 60//29 57//29 97//29 
f 69//29 80//29 54//29 
f 57//29 80//29 97//29 
f 94//29 97//29 80//29 
f 80//29 57//29 54//29 
f 39//29 54//29 57//29 
f 80//29 82//29 94//29 
f 57//29 38//29 39//29 
f 54//29 56//29 69//29 
f 97//29 98//29 60//29 
o mesh40
f 99//30 100//30 58//30 
f 55//30 53//30 79//30 
f 100//30 53//30 58//30 
f 32//30 58//30 53//30 
f 53//30 100//30 79//30 
f 81//30 79//30 100//30 
f 53//30 35//30 32//30 
f 100//30 93//30 81//30 
f 79//30 73//30 55//30 
f 58//30 59//30 99//30 
o mesh41
f 99//31 98//31 97//31 
f 97//31 100//31 99//31 
o mesh42
f 97//32 94//32 93//32 
f 93//32 100//32 97//32 
o mesh43
f 30//33 60//33 47//33 
f 47//33 48//33 30//33 
f 48//33 16//33 30//33 
f 30//33 59//33 60//33 
f 48//33 101//33 8//33 
f 27//33 25//33 8//33 
f 30//33 64//33 59//33 
f 60//33 98//33 102//33 
f 27//33 101//33 102//33 
f 8//33 101//33 27//33 
f 30//33 63//33 64//33 
f 64//33 89//33 99//33 
f 27//33 98//33 99//33 
f 102//33 98//33 27//33 
f 99//33 89//33 27//33 
f 8//33 16//33 48//33 
f 102//33 47//33 60//33 
f 30//33 43//33 90//33 
f 90//33 63//33 30//33 
f 43//33 27//33 89//33 
f 23//33 30//33 16//33 
f 89//33 90//33 43//33 
f 99//33 59//33 64//33 
f 16//33 22//33 23//33 
o mesh44
f 71//34 84//34 50//34 
f 48//34 45//34 103//34 
f 84//34 45//34 50//34 
f 42//34 50//34 45//34 
f 45//34 84//34 103//34 
f 96//34 103//34 84//34 
f 45//34 41//34 42//34 
f 84//34 86//34 96//34 
f 103//34 101//34 48//34 
f 50//34 52//34 71//34 
o mesh45
f 102//35 104//35 46//35 
f 51//35 49//35 83//35 
f 104//35 49//35 46//35 
f 37//35 46//35 49//35 
f 49//35 104//35 83//35 
f 85//35 83//35 104//35 
f 49//35 40//35 37//35 
f 104//35 95//35 85//35 
f 83//35 70//35 51//35 
f 46//35 47//35 102//35 
o mesh46
f 102//36 101//36 103//36 
f 103//36 104//36 102//36 
o mesh47
f 103//37 96//37 95//37 
f 95//37 104//37 103//37 
